<svg width="1440" height="960" viewBox="0 0 1440 960" fill="none" xmlns="http://www.w3.org/2000/svg">
<path d="M60 0V1440" stroke="#EDF8F1" stroke-opacity="0.2"/>
<path d="M120 0V1440" stroke="#EDF8F1" stroke-opacity="0.2"/>
<path d="M180 0V1440" stroke="#EDF8F1" stroke-opacity="0.2"/>
<path d="M240 0V1440" stroke="#EDF8F1" stroke-opacity="0.2"/>
<path d="M300 0V1440" stroke="#EDF8F1" stroke-opacity="0.2"/>
<path d="M360 0V1440" stroke="#EDF8F1" stroke-opacity="0.2"/>
<path d="M420 0V1440" stroke="#EDF8F1" stroke-opacity="0.2"/>
<path d="M480 0V1440" stroke="#EDF8F1" stroke-opacity="0.2"/>
<path d="M540 0V1440" stroke="#EDF8F1" stroke-opacity="0.2"/>
<path d="M600 0V1440" stroke="#EDF8F1" stroke-opacity="0.2"/>
<path d="M660 0V1440" stroke="#EDF8F1" stroke-opacity="0.2"/>
<path d="M720 0V1440" stroke="#EDF8F1" stroke-opacity="0.2"/>
<path d="M780 0V1440" stroke="#EDF8F1" stroke-opacity="0.2"/>
<path d="M840 0V1440" stroke="#EDF8F1" stroke-opacity="0.2"/>
<path d="M900 0V1440" stroke="#EDF8F1" stroke-opacity="0.2"/>
<path d="M960 0V1440" stroke="#EDF8F1" stroke-opacity="0.2"/>
<path d="M1020 0V1440" stroke="#EDF8F1" stroke-opacity="0.2"/>
<path d="M1080 0V1440" stroke="#EDF8F1" stroke-opacity="0.2"/>
<path d="M1140 0V1440" stroke="#EDF8F1" stroke-opacity="0.2"/>
<path d="M1200 0V1440" stroke="#EDF8F1" stroke-opacity="0.2"/>
<path d="M1260 0V1440" stroke="#EDF8F1" stroke-opacity="0.2"/>
<path d="M1320 0V1440" stroke="#EDF8F1" stroke-opacity="0.2"/>
<path d="M1380 0V1440" stroke="#EDF8F1" stroke-opacity="0.2"/>
<path d="M1440 0V1440" stroke="#EDF8F1" stroke-opacity="0.2"/>
<path d="M0 60L1920 60" stroke="#EDF8F1" stroke-opacity="0.2"/>
<path d="M0 120L1920 120" stroke="#EDF8F1" stroke-opacity="0.2"/>
<path d="M0 180L1920 180" stroke="#EDF8F1" stroke-opacity="0.2"/>
<path d="M0 240L1920 240" stroke="#EDF8F1" stroke-opacity="0.2"/>
<path d="M0 300L1920 300" stroke="#EDF8F1" stroke-opacity="0.2"/>
<path d="M0 360L1920 360" stroke="#EDF8F1" stroke-opacity="0.2"/>
<path d="M0 420L1920 420" stroke="#EDF8F1" stroke-opacity="0.2"/>
<path d="M0 480L1920 480" stroke="#EDF8F1" stroke-opacity="0.2"/>
<path d="M0 540L1920 540" stroke="#EDF8F1" stroke-opacity="0.2"/>
<path d="M0 600L1920 600" stroke="#EDF8F1" stroke-opacity="0.2"/>
<path d="M0 660L1920 660" stroke="#EDF8F1" stroke-opacity="0.2"/>
<path d="M0 720L1920 720" stroke="#EDF8F1" stroke-opacity="0.2"/>
<path d="M0 780L1920 780" stroke="#EDF8F1" stroke-opacity="0.2"/>
<path d="M0 840L1920 840" stroke="#EDF8F1" stroke-opacity="0.2"/>
<path d="M0 900L1920 900" stroke="#EDF8F1" stroke-opacity="0.2"/>
<path d="M0 960L1920 960" stroke="#EDF8F1" stroke-opacity="0.2"/>
</svg>
